<svg width="200" height="39" viewBox="0 0 200 39" fill="none" xmlns="http://www.w3.org/2000/svg">
<path d="M11.6429 22.8904H5.84523C3.86514 22.8904 2.39195 22.4936 1.42567 21.6999C0.475222 20.9062 0 19.6839 0 18.0331V10.6281C0 8.97722 0.475222 7.75496 1.42567 6.96128C2.39195 6.15173 3.86514 5.74695 5.84523 5.74695H11.6429C11.9439 5.74695 12.1578 5.81838 12.2845 5.96125C12.4271 6.08824 12.4983 6.30253 12.4983 6.60413V9.48518C12.4983 9.78678 12.4271 10.009 12.2845 10.1519C12.1578 10.2789 11.9439 10.3424 11.6429 10.3424H6.86696C6.3759 10.3424 6.01156 10.4455 5.77395 10.6519C5.53634 10.8424 5.41753 11.136 5.41753 11.5329V17.1997C5.41753 17.5966 5.53634 17.8902 5.77395 18.0807C6.01156 18.2553 6.3759 18.3426 6.86696 18.3426H11.6429C11.9439 18.3426 12.1578 18.4141 12.2845 18.5569C12.4271 18.6839 12.4983 18.8982 12.4983 19.1998V22.0332C12.4983 22.3348 12.4271 22.5571 12.2845 22.6999C12.1578 22.8269 11.9439 22.8904 11.6429 22.8904Z" fill="#0C23F0"/>
<path d="M29.5599 18.3903C29.5599 19.1204 29.449 19.7871 29.2273 20.3903C29.0213 20.9776 28.6412 21.4856 28.0867 21.9142C27.5482 22.3269 26.7957 22.6523 25.8294 22.8904C24.879 23.1285 23.6672 23.2476 22.194 23.2476C20.7208 23.2476 19.5011 23.1285 18.5348 22.8904C17.5685 22.6523 16.8081 22.3269 16.2537 21.9142C15.7151 21.4856 15.3349 20.9776 15.1132 20.3903C14.9072 19.7871 14.8043 19.1204 14.8043 18.3903V10.2709C14.8043 9.54074 14.9072 8.88198 15.1132 8.29466C15.3349 7.69147 15.7151 7.17557 16.2537 6.74699C16.8081 6.3184 17.5685 5.98506 18.5348 5.74695C19.5011 5.50885 20.7208 5.3898 22.194 5.3898C23.6672 5.3898 24.879 5.50885 25.8294 5.74695C26.7957 5.98506 27.5482 6.3184 28.0867 6.74699C28.6412 7.17557 29.0213 7.69147 29.2273 8.29466C29.449 8.88198 29.5599 9.54074 29.5599 10.2709V18.3903ZM20.1981 17.5331C20.1981 17.8506 20.3169 18.1204 20.5545 18.3426C20.7921 18.549 21.3386 18.6522 22.194 18.6522C23.0494 18.6522 23.5959 18.549 23.8335 18.3426C24.0711 18.1204 24.1899 17.8506 24.1899 17.5331V11.1281C24.1899 10.8265 24.0711 10.5725 23.8335 10.3662C23.5959 10.1439 23.0494 10.0328 22.194 10.0328C21.3386 10.0328 20.7921 10.1439 20.5545 10.3662C20.3169 10.5725 20.1981 10.8265 20.1981 11.1281V17.5331Z" fill="#0C23F0"/>
<path d="M37.0044 22.8904H33.4402C33.1393 22.8904 32.9175 22.8269 32.7749 22.6999C32.6482 22.5571 32.5848 22.3348 32.5848 22.0332V6.60413C32.5848 6.30253 32.6482 6.08824 32.7749 5.96125C32.9175 5.81838 33.1393 5.74695 33.4402 5.74695H35.9114C36.2124 5.74695 36.4658 5.79457 36.6717 5.88982C36.8935 5.98506 37.1074 6.15173 37.3133 6.38983L41.9229 11.6757V6.60413C41.9229 6.30253 41.9863 6.08824 42.113 5.96125C42.2556 5.81838 42.4774 5.74695 42.7783 5.74695H46.3425C46.6435 5.74695 46.8573 5.81838 46.9841 5.96125C47.1266 6.08824 47.1979 6.30253 47.1979 6.60413V22.0332C47.1979 22.3348 47.1266 22.5571 46.9841 22.6999C46.8573 22.8269 46.6435 22.8904 46.3425 22.8904H42.7783C42.4774 22.8904 42.2556 22.8269 42.113 22.6999C41.9863 22.5571 41.9229 22.3348 41.9229 22.0332V19.1046L37.8598 14.1758V22.0332C37.8598 22.3348 37.7885 22.5571 37.6459 22.6999C37.5192 22.8269 37.3054 22.8904 37.0044 22.8904Z" fill="#0C23F0"/>
<path d="M62.3558 22.8904H51.3307C51.0297 22.8904 50.8079 22.8269 50.6654 22.6999C50.5386 22.5571 50.4753 22.3348 50.4753 22.0332V6.60413C50.4753 6.30253 50.5386 6.08824 50.6654 5.96125C50.8079 5.81838 51.0297 5.74695 51.3307 5.74695H62.3558C62.6568 5.74695 62.8706 5.81838 62.9974 5.96125C63.1399 6.08824 63.2112 6.30253 63.2112 6.60413V9.38994C63.2112 9.69154 63.1399 9.91376 62.9974 10.0566C62.8706 10.1836 62.6568 10.2471 62.3558 10.2471H55.7978V12.0805H60.4312C60.7321 12.0805 60.946 12.1519 61.0727 12.2948C61.2153 12.4218 61.2866 12.6361 61.2866 12.9377V15.4854C61.2866 15.787 61.2153 16.0092 61.0727 16.1521C60.946 16.2791 60.7321 16.3426 60.4312 16.3426H55.7978V18.3903H62.3558C62.6568 18.3903 62.8706 18.4617 62.9974 18.6045C63.1399 18.7315 63.2112 18.9458 63.2112 19.2474V22.0332C63.2112 22.3348 63.1399 22.5571 62.9974 22.6999C62.8706 22.8269 62.6568 22.8904 62.3558 22.8904Z" fill="#0C23F0"/>
<path d="M77.2876 22.8904H71.4899C69.5098 22.8904 68.0366 22.4936 67.0704 21.6999C66.1199 20.9062 65.6447 19.6839 65.6447 18.0331V10.6281C65.6447 8.97722 66.1199 7.75496 67.0704 6.96128C68.0366 6.15173 69.5098 5.74695 71.4899 5.74695H77.2876C77.5886 5.74695 77.8025 5.81838 77.9292 5.96125C78.0717 6.08824 78.143 6.30253 78.143 6.60413V9.48518C78.143 9.78678 78.0717 10.009 77.9292 10.1519C77.8025 10.2789 77.5886 10.3424 77.2876 10.3424H72.5117C72.0206 10.3424 71.6563 10.4455 71.4186 10.6519C71.181 10.8424 71.0622 11.136 71.0622 11.5329V17.1997C71.0622 17.5966 71.181 17.8902 71.4186 18.0807C71.6563 18.2553 72.0206 18.3426 72.5117 18.3426H77.2876C77.5886 18.3426 77.8025 18.4141 77.9292 18.5569C78.0717 18.6839 78.143 18.8982 78.143 19.1998V22.0332C78.143 22.3348 78.0717 22.5571 77.9292 22.6999C77.8025 22.8269 77.5886 22.8904 77.2876 22.8904Z" fill="#0C23F0"/>
<path d="M88.9051 22.8904H85.0558C84.7549 22.8904 84.5331 22.8269 84.3905 22.6999C84.2638 22.5571 84.2004 22.3348 84.2004 22.0332V10.3424H80.7076C80.4066 10.3424 80.1848 10.2789 80.0423 10.1519C79.9155 10.009 79.8522 9.78678 79.8522 9.48518V6.60413C79.8522 6.30253 79.9155 6.08824 80.0423 5.96125C80.1848 5.81838 80.4066 5.74695 80.7076 5.74695H93.2534C93.5544 5.74695 93.7682 5.81838 93.895 5.96125C94.0375 6.08824 94.1088 6.30253 94.1088 6.60413V9.48518C94.1088 9.78678 94.0375 10.009 93.895 10.1519C93.7682 10.2789 93.5544 10.3424 93.2534 10.3424H89.7605V22.0332C89.7605 22.3348 89.6893 22.5571 89.5467 22.6999C89.42 22.8269 89.2061 22.8904 88.9051 22.8904Z" fill="#0C23F0"/>
<path d="M101.67 10.7471L100.553 14.3663H104.284L103.167 10.7471C103.103 10.6043 103.032 10.5011 102.953 10.4376C102.89 10.3741 102.81 10.3424 102.715 10.3424H102.121C102.026 10.3424 101.939 10.3741 101.86 10.4376C101.797 10.5011 101.733 10.6043 101.67 10.7471ZM100.315 22.0332C100.315 22.3348 100.244 22.5571 100.102 22.6999C99.9749 22.8269 99.7611 22.8904 99.4601 22.8904H95.9672C95.6662 22.8904 95.4445 22.8269 95.3019 22.6999C95.1752 22.5571 95.1118 22.3348 95.1118 22.0332V15.7473C95.1118 15.2711 95.1831 14.7235 95.3257 14.1044C95.4841 13.4853 95.7217 12.7631 96.0385 11.9376L98.1057 6.5327C98.2007 6.26284 98.3433 6.06442 98.5334 5.93744C98.7393 5.81045 99.0007 5.74695 99.3175 5.74695H105.709C106.01 5.74695 106.256 5.81045 106.446 5.93744C106.652 6.06442 106.802 6.26284 106.897 6.5327L108.965 11.9376C109.281 12.7631 109.511 13.4853 109.654 14.1044C109.812 14.7235 109.891 15.2711 109.891 15.7473V22.0332C109.891 22.3348 109.82 22.5571 109.677 22.6999C109.551 22.8269 109.337 22.8904 109.036 22.8904H105.448C105.131 22.8904 104.893 22.8269 104.735 22.6999C104.592 22.5571 104.521 22.3348 104.521 22.0332V18.6998H100.315V22.0332Z" fill="#0C23F0"/>
<path d="M126.933 22.8904H119.425C119.124 22.8904 118.902 22.8269 118.76 22.6999C118.633 22.5571 118.57 22.3348 118.57 22.0332V19.2474C118.57 18.9458 118.633 18.7315 118.76 18.6045C118.902 18.4617 119.124 18.3903 119.425 18.3903H125.817C126.023 18.3903 126.173 18.3268 126.268 18.1998C126.379 18.0569 126.435 17.8902 126.435 17.6998C126.435 17.4299 126.379 17.2315 126.268 17.1045C126.173 16.9775 126.023 16.9061 125.817 16.8902L122.253 16.3902C121.144 16.2314 120.249 15.8664 119.568 15.2949C118.902 14.7235 118.57 13.771 118.57 12.4377V9.93758C118.57 8.58832 119.005 7.55654 119.876 6.84223C120.748 6.11205 121.952 5.74695 123.488 5.74695H130.141C130.442 5.74695 130.656 5.81838 130.783 5.96125C130.925 6.08824 130.997 6.30253 130.997 6.60413V9.43756C130.997 9.73916 130.925 9.96139 130.783 10.1042C130.656 10.2312 130.442 10.2947 130.141 10.2947H124.605C124.399 10.2947 124.241 10.3662 124.13 10.509C124.019 10.636 123.963 10.8027 123.963 11.009C123.963 11.2154 124.019 11.39 124.13 11.5329C124.241 11.6757 124.399 11.7551 124.605 11.771L128.145 12.2472C129.254 12.4059 130.149 12.771 130.83 13.3425C131.511 13.9139 131.852 14.8663 131.852 16.1997V18.6998C131.852 20.049 131.408 21.0888 130.521 21.8189C129.65 22.5333 128.454 22.8904 126.933 22.8904Z" fill="#0C23F0"/>
<path d="M140.653 10.7471L139.536 14.3663H143.267L142.15 10.7471C142.087 10.6043 142.015 10.5011 141.936 10.4376C141.873 10.3741 141.793 10.3424 141.698 10.3424H141.104C141.009 10.3424 140.922 10.3741 140.843 10.4376C140.78 10.5011 140.716 10.6043 140.653 10.7471ZM139.299 22.0332C139.299 22.3348 139.227 22.5571 139.085 22.6999C138.958 22.8269 138.744 22.8904 138.443 22.8904H134.95C134.649 22.8904 134.428 22.8269 134.285 22.6999C134.158 22.5571 134.095 22.3348 134.095 22.0332V15.7473C134.095 15.2711 134.166 14.7235 134.309 14.1044C134.467 13.4853 134.705 12.7631 135.022 11.9376L137.089 6.5327C137.184 6.26284 137.326 6.06442 137.516 5.93744C137.722 5.81045 137.984 5.74695 138.301 5.74695H144.692C144.993 5.74695 145.239 5.81045 145.429 5.93744C145.635 6.06442 145.785 6.26284 145.88 6.5327L147.948 11.9376C148.264 12.7631 148.494 13.4853 148.637 14.1044C148.795 14.7235 148.874 15.2711 148.874 15.7473V22.0332C148.874 22.3348 148.803 22.5571 148.66 22.6999C148.534 22.8269 148.32 22.8904 148.019 22.8904H144.431C144.114 22.8904 143.877 22.8269 143.718 22.6999C143.576 22.5571 143.504 22.3348 143.504 22.0332V18.6998H139.299V22.0332Z" fill="#0C23F0"/>
<path d="M166.374 18.3903C166.374 19.1204 166.263 19.7871 166.041 20.3903C165.835 20.9776 165.455 21.4856 164.9 21.9142C164.362 22.3269 163.617 22.6523 162.667 22.8904C161.716 23.1285 160.505 23.2476 159.031 23.2476C157.558 23.2476 156.346 23.1285 155.396 22.8904C154.446 22.6523 153.693 22.3269 153.139 21.9142C152.6 21.4856 152.22 20.9776 151.998 20.3903C151.792 19.7871 151.689 19.1204 151.689 18.3903V6.60413C151.689 6.30253 151.753 6.08824 151.879 5.96125C152.022 5.81838 152.244 5.74695 152.545 5.74695H156.275C156.576 5.74695 156.79 5.81838 156.917 5.96125C157.059 6.08824 157.131 6.30253 157.131 6.60413V17.4616C157.131 17.7791 157.249 18.049 157.487 18.2712C157.725 18.4776 158.255 18.5807 159.079 18.5807C159.918 18.5807 160.457 18.4776 160.695 18.2712C160.932 18.049 161.051 17.7791 161.051 17.4616V6.60413C161.051 6.30253 161.114 6.08824 161.241 5.96125C161.384 5.81838 161.606 5.74695 161.907 5.74695H165.518C165.819 5.74695 166.033 5.81838 166.16 5.96125C166.302 6.08824 166.374 6.30253 166.374 6.60413V18.3903ZM163.38 3.93737L155.087 4.96121C154.818 4.99296 154.612 4.9374 154.469 4.79454C154.343 4.65168 154.279 4.44532 154.279 4.17547V1.88968C154.279 1.58808 154.343 1.38172 154.469 1.27061C154.612 1.14362 154.834 1.06425 155.135 1.0325L163.427 0.00865857C163.696 -0.0230891 163.895 0.0324682 164.021 0.17533C164.164 0.318192 164.235 0.524549 164.235 0.7944V3.08019C164.235 3.38179 164.164 3.59608 164.021 3.72307C163.895 3.83419 163.681 3.90562 163.38 3.93737Z" fill="#0C23F0"/>
<path d="M178.399 22.8904H170.391C170.09 22.8904 169.869 22.8269 169.726 22.6999C169.599 22.5571 169.536 22.3348 169.536 22.0332V6.60413C169.536 6.30253 169.599 6.08824 169.726 5.96125C169.869 5.81838 170.09 5.74695 170.391 5.74695H178.399C180.379 5.74695 181.844 6.14379 182.795 6.93747C183.761 7.73115 184.244 8.95341 184.244 10.6043V18.0331C184.244 19.6839 183.761 20.9062 182.795 21.6999C181.844 22.4936 180.379 22.8904 178.399 22.8904ZM174.93 10.2947V18.3903H177.757C178.138 18.3903 178.415 18.295 178.589 18.1045C178.779 17.914 178.874 17.6204 178.874 17.2235V11.4376C178.874 11.0408 178.779 10.7551 178.589 10.5805C178.415 10.39 178.138 10.2947 177.757 10.2947H174.93Z" fill="#0C23F0"/>
<path d="M199.145 22.8904H188.119C187.818 22.8904 187.597 22.8269 187.454 22.6999C187.327 22.5571 187.264 22.3348 187.264 22.0332V6.60413C187.264 6.30253 187.327 6.08824 187.454 5.96125C187.597 5.81838 187.818 5.74695 188.119 5.74695H199.145C199.446 5.74695 199.659 5.81838 199.786 5.96125C199.929 6.08824 200 6.30253 200 6.60413V9.38994C200 9.69154 199.929 9.91376 199.786 10.0566C199.659 10.1836 199.446 10.2471 199.145 10.2471H192.587V12.0805H197.22C197.521 12.0805 197.735 12.1519 197.862 12.2948C198.004 12.4218 198.075 12.6361 198.075 12.9377V15.4854C198.075 15.787 198.004 16.0092 197.862 16.1521C197.735 16.2791 197.521 16.3426 197.22 16.3426H192.587V18.3903H199.145C199.446 18.3903 199.659 18.4617 199.786 18.6045C199.929 18.7315 200 18.9458 200 19.2474V22.0332C200 22.3348 199.929 22.5571 199.786 22.6999C199.659 22.8269 199.446 22.8904 199.145 22.8904Z" fill="#0C23F0"/>
<path fill-rule="evenodd" clip-rule="evenodd" d="M0 26.649L11.0526 27.8049C22.1053 28.8451 44.2105 31.0412 66.8421 31.2724C88.9474 31.5036 111.053 29.7698 133.158 29.7698C155.789 29.7698 177.895 31.5036 188.947 32.4283L200 33.2373V38.5542H188.947C177.895 38.5542 155.789 38.5542 133.158 38.5542C111.053 38.5542 88.9474 38.5542 66.8421 38.5542C44.2105 38.5542 22.1053 38.5542 11.0526 38.5542H0V26.649Z" fill="#8FE28D"/>
</svg>
